PathFileType	4	(X/Y/Z)	G:\TennisProject\Miami_Dimitrov_Sinner_masked_Sports2D\Miami_Dimitrov_Sinner_masked_Sports2D_px_person03.trc
DataRate	CameraRate	NumFrames	NumMarkers	Units	OrigDataRate	OrigDataStartFrame	OrigNumFrames
25	25	4	22	m	25	0	499
Frame#	Time	Hip			RHip			RKnee			RAnkle			RBigToe			RSmallToe			RHeel			LHip			LKnee			LAnkle			LBigToe			LSmallToe			LHeel			Neck			Head			Nose			RShoulder			RElbow			RWrist			LShoulder			LElbow			LWrist		
		X1	Y1	Z1	X2	Y2	Z2	X3	Y3	Z3	X4	Y4	Z4	X5	Y5	Z5	X6	Y6	Z6	X7	Y7	Z7	X8	Y8	Z8	X9	Y9	Z9	X10	Y10	Z10	X11	Y11	Z11	X12	Y12	Z12	X13	Y13	Z13	X14	Y14	Z14	X15	Y15	Z15	X16	Y16	Z16	X17	Y17	Z17	X18	Y18	Z18	X19	Y19	Z19	X20	Y20	Z20	X21	Y21	Z21	X22	Y22	Z22
0	0.0	574.6019008449321	169.33584033507452	0.0	568.9729250604487	169.80494718823093	0.0	567.3311405056508	192.08627046194692	0.0	567.0965988887033	214.60216784499323	0.0	567.5657011691665	218.58937608289443	0.0	562.8748811078954	218.12029477983268	0.0	568.0347603126381	217.41666347646685	0.0	579.9963548455925	170.2740292194029	0.0	582.8108289021181	192.08627627283832	0.0	585.8598632684512	214.36761365312688	0.0	587.2670980092225	218.3548462254667	0.0	589.3779507408406	217.18213379897853	0.0	586.0943859039813	216.7130440347943	0.0	573.4292034547824	138.8455647296817	0.0	572.72557473079	124.30405562567819	0.0	572.9601163443994	132.74750293100053	0.0	563.8130264837367	144.47454686504446	0.0	563.1094185491763	156.43609857850905	0.0	570.8492692611369	159.01604814275774	0.0	583.9835417710087	143.7709013202332	0.0	586.7980110328526	156.67065617887766	0.0	578.5891160004959	160.18873716704493	0.0
1	0.04	574.6304719646056	169.45621390165056	0.0	568.7702475799869	170.0990397236551	0.0	567.506629060799	191.63512774102523	0.0	567.2281644933234	213.90530468200984	0.0	565.6691632615315	219.0974315927907	0.0	562.6598212519705	218.40476440921339	0.0	567.3795662788684	217.2259825469106	0.0	580.3137462904015	170.19202078925747	0.0	582.9532840315583	191.53366213988835	0.0	585.8886495331155	213.73172347853915	0.0	587.7435119086225	218.94726614785583	0.0	589.8909741294615	218.37873952910263	0.0	584.8917493978876	217.3350587266857	0.0	573.7043491452748	138.445683809669	0.0	572.7239521078745	124.44428998340257	0.0	572.9200104593499	132.13754095222725	0.0	563.6959734946613	144.03863984776146	0.0	562.8820789942517	156.25221882844434	0.0	570.9803422712694	160.64041392437574	0.0	584.5886847481429	143.35005016325746	0.0	586.8521825334441	156.3126988590154	0.0	579.8171538605136	161.50340547096127	0.0
2	0.08	574.6236372785174	169.54495148914202	0.0	568.6681742510156	170.27372955952427	0.0	567.5385612230373	191.55066525524168	0.0	567.2484922543654	213.70890330479799	0.0	564.9556810131144	219.2303575518124	0.0	562.6195415690637	218.54725651538098	0.0	567.2562423133725	217.22306037909672	0.0	580.427793918146	170.22613457068442	0.0	582.9952766000024	191.41140404575782	0.0	585.8655863264937	213.62574942111561	0.0	587.8725473649625	219.12871804846986	0.0	590.093621515538	218.69528641686256	0.0	584.416087530707	217.57828469912488	0.0	573.7815618109435	138.4001459995816	0.0	572.7232803624238	124.53137501550776	0.0	572.8833846493403	132.03603133958143	0.0	563.559076150563	144.00425454522218	0.0	562.76152318546	156.32439055530648	0.0	571.0962313685312	161.31931111313247	0.0	584.7649649911244	143.22195728445178	0.0	586.8719593288189	156.21837856006235	0.0	579.9722824192158	161.94422902094504	0.0
3	0.12	574.5779791816346	169.55506592654473	0.0	568.5827891413869	170.2615702687288	0.0	567.4430193950412	191.63754114690119	0.0	567.1649511759872	213.95583555029162	0.0	565.5081719938554	219.08344235109246	0.0	562.7586906483434	218.5251220363093	0.0	567.5937997202591	217.41381333133165	0.0	580.3624115396221	170.30061181978184	0.0	582.9683602405156	191.56966360461124	0.0	585.7718826920776	213.88894443077578	0.0	587.7881647067707	218.89016588966064	0.0	589.9987667839467	218.30318957578933	0.0	584.6174821156569	217.51594657471816	0.0	573.6837299803344	138.6179138196593	0.0	572.7245856613001	124.65252640518437	0.0	572.8441318021889	132.3632018339599	0.0	563.5170666131661	144.26191608495023	0.0	562.738155776415	156.54995302027268	0.0	571.0756774316301	161.3277999358059	0.0	584.5644679074619	143.36707441000573	0.0	586.802976810551	156.33186602971915	0.0	579.1408337124692	161.79705457427303	0.0
